HIERARCHY
ROOT Hips
{
 OFFSET 0.000000 0.000000 0.000000
 CHANNELS 6 Xposition Yposition Zposition Yrotation Xrotation Zrotation
 JOINT Chest
 {
  OFFSET 0.000000 10.385163 0.011643
  CHANNELS 3 Yrotation Xrotation Zrotation
  JOINT Chest2
  {
   OFFSET 0.000000 11.579334 -0.021150
   CHANNELS 3 Yrotation Xrotation Zrotation
   JOINT Chest3
   {
    OFFSET 0.000000 10.463212 0.000000
    CHANNELS 3 Yrotation Xrotation Zrotation
    JOINT Chest4
    {
     OFFSET 0.000000 10.463212 0.000000
     CHANNELS 3 Yrotation Xrotation Zrotation
     JOINT Neck
     {
      OFFSET 0.000000 14.544862 0.000000
      CHANNELS 3 Yrotation Xrotation Zrotation
      JOINT Head
      {
       OFFSET 0.000000 9.730630 -0.050295
       CHANNELS 3 Yrotation Xrotation Zrotation
       End Site
       {
        OFFSET 0.000000 18.757589 -0.026270
       }
      }
     }
     JOINT RightCollar
     {
      OFFSET -2.985174 8.102313 0.000000
      CHANNELS 3 Yrotation Xrotation Zrotation
      JOINT RightShoulder
      {
       OFFSET -13.558590 0.000000 0.000000
       CHANNELS 3 Yrotation Xrotation Zrotation
       JOINT RightElbow
       {
        OFFSET -28.208579 0.000000 0.000000
        CHANNELS 3 Yrotation Xrotation Zrotation
        JOINT RightWrist
        {
         OFFSET -23.322907 0.000000 0.010349
         CHANNELS 3 Yrotation Xrotation Zrotation
         End Site
         {
          OFFSET -17.603338 0.000000 0.000000
         }
        }
       }
      }
     }
     JOINT LeftCollar
     {
      OFFSET 2.985174 8.102313 0.000000
      CHANNELS 3 Yrotation Xrotation Zrotation
      JOINT LeftShoulder
      {
       OFFSET 13.558590 0.000000 0.000000
       CHANNELS 3 Yrotation Xrotation Zrotation
       JOINT LeftElbow
       {
        OFFSET 28.208579 0.000000 0.000000
        CHANNELS 3 Yrotation Xrotation Zrotation
        JOINT LeftWrist
        {
         OFFSET 23.322907 0.000000 0.010349
         CHANNELS 3 Yrotation Xrotation Zrotation
         End Site
         {
          OFFSET 17.603338 0.000000 0.000000
         }
        }
       }
      }
     }
    }
   }
  }
 }
 JOINT RightHip
 {
  OFFSET -8.341224 -0.057053 -0.005822
  CHANNELS 3 Yrotation Xrotation Zrotation
  JOINT RightKnee
  {
   OFFSET 0.000000 -44.280013 0.005508
   CHANNELS 3 Yrotation Xrotation Zrotation
   JOINT RightAnkle
   {
    OFFSET 0.000000 -43.261728 0.009315
    CHANNELS 3 Yrotation Xrotation Zrotation
    JOINT RightToe
    {
     OFFSET 0.000000 -8.082955 18.257715
     CHANNELS 3 Yrotation Xrotation Zrotation
     End Site
     {
      OFFSET 0.000000 -1.634678 7.189621
     }
    }
   }
  }
 }
 JOINT LeftHip
 {
  OFFSET 8.341224 -0.057053 -0.005822
  CHANNELS 3 Yrotation Xrotation Zrotation
  JOINT LeftKnee
  {
   OFFSET 0.000000 -44.280013 0.005508
   CHANNELS 3 Yrotation Xrotation Zrotation
   JOINT LeftAnkle
   {
    OFFSET 0.000000 -43.261728 0.009315
    CHANNELS 3 Yrotation Xrotation Zrotation
    JOINT LeftToe
    {
     OFFSET 0.000000 -8.082955 18.257715
     CHANNELS 3 Yrotation Xrotation Zrotation
     End Site
     {
      OFFSET 0.000000 -1.634678 7.189621
     }
    }
   }
  }
 }
}
MOTION
Frames: 10
Frame Time: 0.016667
0.000000 95.489079 0.000000 0.000000 -5.826342 0.000000 0.000000 11.116423 0.000000 0.000000 -5.290081 0.000000 0.000000 0.000000 0.000000 0.000000 0.000000 0.000000 0.000000 12.665069 0.000000 0.000000 0.575450 0.000000 0.000000 0.000000 0.000000 0.000000 0.000000 0.000000 2.337306 0.000000 0.000000 -2.337306 0.000000 0.000000 0.000000 0.000000 0.000000 0.000000 0.000000 0.000000 -2.337306 0.000000 0.000000 2.337306 0.000000 0.000000 0.000000 8.578828 0.000000 0.000000 1.905768 0.000000 0.000000 -4.658254 0.000000 0.000000 0.000000 0.000000 0.000000 8.578828 0.000000 0.000000 1.905768 0.000000 0.000000 -4.658254 0.000000 0.000000 0.000000 0.000000
-112.235464 97.281601 -132.536260 11.204269 -15.148629 -0.683413 -0.622784 6.906556 2.217816 -0.309336 3.066587 0.993135 -0.309336 3.066587 0.993135 -0.236935 2.299446 0.746226 -1.029572 13.309311 -0.969180 -1.556700 -11.471643 -1.417723 3.093579 -4.259554 6.406855 -13.222968 -2.162176 74.396825 0.739999 14.746309 1.925005 -1.126721 -0.925123 -0.649093 0.635342 -6.480508 -14.636872 8.663344 -1.077750 -75.287668 -2.168306 18.290062 -1.942555 3.273687 -1.739209 0.209750 -4.820179 20.817729 0.267718 -0.864536 -2.832495 0.381545 -8.043247 -3.584602 1.138014 0.000000 -0.000000 0.000000 2.681062 22.216203 2.269866 1.172743 -3.223531 0.179808 6.994908 -4.324256 -3.174481 0.000000 -0.000000 -0.000000
-112.231599 97.278087 -132.570585 11.211852 -14.978558 -0.666506 -0.624921 6.837925 2.201614 -0.309726 3.036096 0.985923 -0.309725 3.036096 0.985923 -0.237142 2.276580 0.740809 -1.042852 13.314502 -0.948798 -1.590158 -11.461942 -1.373731 3.081652 -4.224100 6.397046 -13.176987 -2.188787 74.466463 0.744969 14.746964 1.923571 -1.123720 -0.911773 -0.659841 0.622776 -6.443767 -14.541887 8.598012 -1.098636 -75.383545 -2.249854 18.307809 -1.996257 3.258938 -1.728345 0.192918 -4.791863 20.612980 0.211426 -0.937500 -2.800117 0.524364 -8.014228 -3.605305 1.072339 0.000000 0.000000 0.000000 2.628858 21.996288 2.202932 1.254641 -3.160504 0.216016 6.941902 -4.352894 -3.194534 0.000000 -0.000000 -0.000000
-112.229252 97.275850 -132.601067 11.216279 -14.821844 -0.650865 -0.624479 6.774016 2.186438 -0.309013 3.007715 0.979132 -0.309013 3.007715 0.979132 -0.236530 2.255299 0.735702 -1.055035 13.320709 -0.928432 -1.621525 -11.450337 -1.330227 3.070594 -4.194708 6.390020 -13.134979 -2.214361 74.530601 0.743315 14.745160 1.916632 -1.122105 -0.901823 -0.666994 0.612271 -6.409347 -14.454622 8.540696 -1.115645 -75.471894 -2.320339 18.325934 -2.043602 3.240768 -1.721083 0.182084 -4.752405 20.424389 0.166091 -1.008006 -2.769714 0.647821 -7.993116 -3.624339 1.017056 0.000000 -0.000000 0.000000 2.578905 21.795699 2.142848 1.331474 -3.105057 0.246865 6.896119 -4.378079 -3.213344 0.000000 -0.000000 0.000000
-112.229407 97.275625 -132.626045 11.215924 -14.682830 -0.636583 -0.620244 6.716099 2.172135 -0.306661 2.982013 0.972677 -0.306661 2.982013 0.972677 -0.234694 2.236029 0.730840 -1.065715 13.328215 -0.906814 -1.650551 -11.436297 -1.284972 3.060663 -4.173429 6.387743 -13.098921 -2.238847 74.585901 0.732389 14.740286 1.902813 -1.121207 -0.899780 -0.669450 0.605017 -6.376483 -14.378082 8.494659 -1.127832 -75.548816 -2.379012 18.344606 -2.086362 3.215029 -1.719841 0.181943 -4.692552 20.257570 0.137325 -1.075049 -2.742533 0.742984 -7.986851 -3.641449 0.977750 -0.000000 -0.000000 0.000000 2.528377 21.622472 2.091540 1.403375 -3.062442 0.268573 6.861850 -4.396689 -3.231015 0.000000 0.000000 0.000000
-112.231080 97.276676 -132.647180 11.212398 -14.557170 -0.623592 -0.613431 6.662904 2.158844 -0.303204 2.958421 0.966637 -0.303204 2.958421 0.966637 -0.232036 2.218343 0.726286 -1.075299 13.336731 -0.885214 -1.677484 -11.420366 -1.240211 3.051603 -4.158211 6.388254 -13.066852 -2.262265 74.635729 0.714838 14.732943 1.883501 -1.121678 -0.901140 -0.668310 0.599777 -6.345967 -14.309249 8.456633 -1.136010 -75.618261 -2.426591 18.363692 -2.122811 3.185892 -1.722160 0.187821 -4.621639 20.106891 0.119378 -1.139649 -2.717449 0.818820 -7.988520 -3.656922 0.948840 0.000000 0.000000 0.000000 2.479972 21.468583 2.046984 1.470187 -3.027353 0.284840 6.834798 -4.411838 -3.247449 0.000000 0.000000 0.000000
-112.232838 97.278067 -132.665617 11.207343 -14.445185 -0.612936 -0.605088 6.615351 2.148030 -0.299133 2.937339 0.961681 -0.299133 2.937339 0.961681 -0.228927 2.202541 0.722541 -1.083914 13.346400 -0.867472 -1.701010 -11.402303 -1.203166 3.043502 -4.148962 6.388452 -13.036848 -2.283601 74.684702 0.691983 14.722487 1.857341 -1.126862 -0.895781 -0.663277 0.594832 -6.322483 -14.246790 8.424839 -1.138709 -75.684574 -2.454133 18.383194 -2.141412 3.162443 -1.724322 0.191641 -4.556351 19.971598 0.106462 -1.202419 -2.693058 0.882885 -7.985301 -3.669932 0.923977 -0.000000 0.000000 -0.000000 2.443844 21.329347 2.009603 1.526376 -2.991439 0.301375 6.809295 -4.429407 -3.261111 0.000000 0.000000 0.000000
-112.234109 97.279617 -132.681408 11.201109 -14.349498 -0.605364 -0.595184 6.574628 2.140368 -0.294446 2.919296 0.958108 -0.294446 2.919296 0.958108 -0.225368 2.189017 0.719833 -1.091969 13.357713 -0.854889 -1.721371 -11.381212 -1.176139 3.036702 -4.147630 6.386842 -13.009083 -2.301224 74.735006 0.661983 14.707131 1.820833 -1.140330 -0.877433 -0.651272 0.589098 -6.309918 -14.191215 8.398892 -1.133753 -75.750158 -2.453435 18.408167 -2.132381 3.150278 -1.721691 0.189785 -4.504950 19.854277 0.096764 -1.264506 -2.669343 0.936210 -7.969474 -3.678677 0.901771 0.000000 -0.000000 -0.000000 2.429604 21.204818 1.981368 1.565372 -2.949971 0.321303 6.782460 -4.453013 -3.270797 0.000000 0.000000 0.000000
-112.235466 97.281507 -132.694501 11.193325 -14.267487 -0.600125 -0.583747 6.539544 2.135185 -0.289141 2.903762 0.955618 -0.289141 2.903762 0.955618 -0.221354 2.177377 0.717935 -1.099059 13.370174 -0.846164 -1.738334 -11.358009 -1.156823 3.030854 -4.152269 6.384917 -12.983387 -2.316760 74.784470 0.626689 14.688645 1.777490 -1.158499 -0.852361 -0.635377 0.583612 -6.304388 -14.142011 8.379174 -1.123275 -75.812632 -2.432648 18.433547 -2.105486 3.143796 -1.718930 0.185850 -4.459119 19.752318 0.092309 -1.324769 -2.646324 0.977760 -7.948771 -3.684952 0.883611 -0.000000 -0.000000 0.000000 2.427507 21.094986 1.960066 1.593754 -2.907673 0.341478 6.757175 -4.479041 -3.277705 0.000000 -0.000000 0.000000
-112.237189 97.283336 -132.705888 11.184553 -14.191604 -0.596008 -0.571911 6.507450 2.131929 -0.283699 2.889557 0.953982 -0.283699 2.889557 0.953982 -0.217244 2.166732 0.716678 -1.104103 13.382450 -0.841231 -1.749877 -11.335175 -1.145522 3.025003 -4.156942 6.384056 -12.957316 -2.334090 74.831167 0.592947 14.671720 1.736466 -1.173989 -0.829259 -0.624536 0.579852 -6.298905 -14.096309 8.365072 -1.112289 -75.869165 -2.407403 18.444168 -2.078532 3.135288 -1.726293 0.182574 -4.410660 19.657181 0.093099 -1.380388 -2.622626 1.011981 -7.933541 -3.693321 0.867320 0.000000 0.000000 0.000000 2.418717 20.995066 1.939903 1.625719 -2.870391 0.358223 6.736414 -4.502529 -3.283907 0.000000 0.000000 0.000000
